<svg xmlns="http://www.w3.org/2000/svg" width="25" height="24" viewBox="0 0 25 24" fill="none">
  <path fill-rule="evenodd" clip-rule="evenodd" d="M13.3192 24H1.82469C1.09288 24 0.5 23.4067 0.5 22.6753V1.32469C0.5 0.592875 1.09288 0 1.82469 0H23.1755C23.9069 0 24.5 0.592875 24.5 1.32469V22.6753C24.5 23.4069 23.9069 24 23.1755 24H17.0596V14.7058H20.1793L20.6463 11.0837H17.0596V8.77125C17.0596 7.72256 17.3508 7.008 18.8546 7.008L20.7725 7.00725V3.76762C20.4408 3.72356 19.3023 3.62494 17.9776 3.62494C15.2122 3.62494 13.319 5.313 13.319 8.41275V11.0839H10.1915V14.706H13.3192V24Z" fill="#E0E0E0"/>
</svg>