<svg xmlns="http://www.w3.org/2000/svg" width="25" height="24" viewBox="0 0 25 24" fill="none">
<path fill-rule="evenodd" clip-rule="evenodd" d="M24.5 4.36756C23.6182 4.76919 22.6687 5.04069 21.6727 5.162C22.6897 4.538 23.4703 3.54837 23.8379 2.36975C22.8856 2.94762 21.8334 3.368 20.7091 3.59338C19.8133 2.61256 18.5326 2 17.1155 2C14.3981 2 12.1934 4.26069 12.1934 7.04881C12.1934 7.44462 12.2356 7.82881 12.3202 8.19875C8.2282 7.98762 4.60082 5.97969 2.17063 2.92156C1.7467 3.66987 1.50426 4.538 1.50426 5.46256C1.50426 7.21344 2.37351 8.759 3.69482 9.66481C2.88913 9.64025 2.12826 9.41056 1.46338 9.035V9.09706C1.46338 11.5441 3.16082 13.5852 5.41476 14.0476C5.00207 14.1661 4.5667 14.2254 4.11726 14.2254C3.80038 14.2254 3.49045 14.195 3.19026 14.1357C3.81707 16.1409 5.63432 17.6013 7.78963 17.6403C6.10476 18.9954 3.98057 19.8027 1.67451 19.8027C1.2772 19.8027 0.884196 19.7797 0.499634 19.7334C2.67895 21.1634 5.26813 21.9999 8.04745 21.9999C17.1054 21.9999 22.0569 14.3075 22.0569 7.63512C22.0569 7.41556 22.0526 7.196 22.0441 6.98075C23.0068 6.26862 23.8421 5.38025 24.5 4.36756Z" fill="#E0E0E0"/>
</svg>