<svg xmlns="http://www.w3.org/2000/svg" width="32" height="40" viewBox="0 0 32 40" fill="none">
  <path d="M14.6 0.519888L2.6 5.01989C1.04 5.61989 0 7.09989 0 8.77989V18.1799C0 28.2799 6.82 37.6999 16 39.9999C25.18 37.6999 32 28.2799 32 18.1799V8.77989C32 7.11989 30.96 5.61989 29.4 5.03989L17.4 0.539888C16.5 0.179888 15.5 0.179888 14.6 0.519888ZM16 27.9999C14.9 27.9999 14 27.0999 14 25.9999C14 24.8999 14.9 23.9999 16 23.9999C17.1 23.9999 18 24.8999 18 25.9999C18 27.0999 17.1 27.9999 16 27.9999ZM16 19.9999C14.9 19.9999 14 19.0999 14 17.9999V11.9999C14 10.8999 14.9 9.99989 16 9.99989C17.1 9.99989 18 10.8999 18 11.9999V17.9999C18 19.0999 17.1 19.9999 16 19.9999Z" fill="#FF2E79"/>
</svg>