<svg xmlns="http://www.w3.org/2000/svg" width="23" height="24" viewBox="0 0 23 24" fill="none">
<path d="M11.9688 0.731262C10.3563 0.731262 9.04382 2.04376 9.04382 3.65626C9.04382 5.26876 10.3563 6.58126 11.9688 6.58126C13.5813 6.58126 14.8938 5.26876 14.8938 3.65626C14.8938 2.04376 13.5813 0.731262 11.9688 0.731262Z" fill="white"/>
<path d="M11.9688 19.6688C10.9938 19.6688 10.1688 20.4563 10.1688 21.4688C10.1688 22.4813 10.9563 23.2688 11.9688 23.2688C12.9438 23.2688 13.7688 22.4813 13.7688 21.4688C13.7688 20.4563 12.9438 19.6688 11.9688 19.6688Z" fill="white"/>
<path d="M20.8563 11.2313C20.1438 11.2313 19.5438 11.8313 19.5438 12.5438C19.5438 13.2563 20.1438 13.8563 20.8563 13.8563C21.5688 13.8563 22.1688 13.2563 22.1688 12.5438C22.1313 11.8313 21.5688 11.2313 20.8563 11.2313Z" fill="white"/>
<path d="M5.2563 12.5437C5.2563 11.3062 4.2438 10.3312 3.0438 10.3312C1.8063 10.3312 0.831299 11.3437 0.831299 12.5437C0.831299 13.7812 1.8438 14.7562 3.0438 14.7562C4.2813 14.7562 5.2563 13.7812 5.2563 12.5437Z" fill="white"/>
<path d="M18.2688 20.3437C19.118 20.3437 19.8063 19.6554 19.8063 18.8062C19.8063 17.9571 19.118 17.2687 18.2688 17.2687C17.4197 17.2687 16.7313 17.9571 16.7313 18.8062C16.7313 19.6554 17.4197 20.3437 18.2688 20.3437Z" fill="white"/>
<path d="M5.66885 3.76874C5.03135 3.76874 4.39385 4.03124 3.94385 4.48124C3.00635 5.41874 3.00635 6.99374 3.94385 7.93124C4.43135 8.41874 5.03135 8.64374 5.66885 8.64374C6.30635 8.64374 6.90635 8.41874 7.39385 7.93124C7.84385 7.48124 8.10635 6.84374 8.10635 6.20624C8.10635 5.56874 7.84385 4.93124 7.39385 4.48124C6.94385 4.03124 6.30635 3.76874 5.66885 3.76874Z" fill="white"/>
<path d="M18.2313 7.33129C18.5313 7.33129 18.7938 7.21879 19.0188 7.03129C19.2438 6.80629 19.3563 6.54379 19.3188 6.24379C19.3188 5.94379 19.2063 5.71879 19.0188 5.53129C18.7938 5.30629 18.5313 5.19379 18.2313 5.23129C17.9313 5.23129 17.7063 5.34379 17.5188 5.53129C17.2938 5.75629 17.1813 6.01879 17.2188 6.31879C17.2188 6.61879 17.3313 6.84379 17.5188 7.03129C17.6688 7.21879 17.9313 7.33129 18.2313 7.33129Z" fill="white"/>
<path d="M5.66877 16.8563C4.58127 16.8563 3.68127 17.7563 3.68127 18.8438C3.68127 19.9313 4.58127 20.8313 5.66877 20.8313C6.75627 20.8313 7.65627 19.9313 7.65627 18.8438C7.65627 17.7563 6.75627 16.8563 5.66877 16.8563Z" fill="white"/>
</svg>